name E:\Dropbox\SEL\BOX\Experiment\240124_SUB1_PJH\c3d\XYZ\UpDown_TrcMot\15_10_trial2_D1_ExtLoadAPP2.mot
datacolumns 37
datarows 6
range 7.77 7.775
endheader

time	    ground_force1_vx	    ground_force1_vy	    ground_force1_vz	    ground_force1_px	    ground_force1_py	    ground_force1_pz	    ground_torque1_x	    ground_torque1_y	    ground_torque1_z	    ground_force2_vx	    ground_force2_vy	    ground_force2_vz	    ground_force2_px	    ground_force2_py	    ground_force2_pz	    ground_torque2_x	    ground_torque2_y	    ground_torque2_z	      hand_force3_vx	      hand_force3_vy	      hand_force3_vz	      hand_force3_px	      hand_force3_py	      hand_force3_pz	      hand_torque3_x	      hand_torque3_y	      hand_torque3_z	      hand_force4_vx	      hand_force4_vy	      hand_force4_vz	      hand_force4_px	      hand_force4_py	      hand_force4_pz	      hand_torque4_x	      hand_torque4_y	      hand_torque4_z	
7.77	         40.11732574	        424.96435372	        -19.50713574	          0.23060903	          0.00000000	          0.29894342	          0.00000000	         -4.62046703	          0.00000000	        -37.36062966	        384.67914599	        -14.29416038	          0.57016506	          0.00000000	          0.26808559	          0.00000000	          3.15038514	          0.00000000	          0.00000000	          0.00000000	          0.00000000	          0.00000000	          0.00000000	          0.00000000	          0.00000000	          0.00000000	          0.00000000	          0.00000000	          0.00000000	          0.00000000	          0.00000000	          0.00000000	          0.00000000	          0.00000000	          0.00000000	          0.00000000	
7.771	         40.14494897	        425.27230400	        -19.60956264	          0.23062838	          0.00000000	          0.29903341	          0.00000000	         -4.61981899	          0.00000000	        -37.37873136	        385.14428626	        -14.42667435	          0.57013918	          0.00000000	          0.26826654	          0.00000000	          3.15563684	          0.00000000	          0.00000000	          0.00000000	          0.00000000	          0.00000000	          0.00000000	          0.00000000	          0.00000000	          0.00000000	          0.00000000	          0.00000000	          0.00000000	          0.00000000	          0.00000000	          0.00000000	          0.00000000	          0.00000000	          0.00000000	          0.00000000	
7.772	         40.17328669	        425.57316274	        -19.70733072	          0.23064727	          0.00000000	          0.29912091	          0.00000000	         -4.61900533	          0.00000000	        -37.39716559	        385.59837214	        -14.55696131	          0.57011388	          0.00000000	          0.26844297	          0.00000000	          3.16080776	          0.00000000	          0.00000000	          0.00000000	          0.00000000	          0.00000000	          0.00000000	          0.00000000	          0.00000000	          0.00000000	          0.00000000	          0.00000000	          0.00000000	          0.00000000	          0.00000000	          0.00000000	          0.00000000	          0.00000000	          0.00000000	          0.00000000	
7.773	         40.20222157	        425.86663329	        -19.80040142	          0.23066569	          0.00000000	          0.29920590	          0.00000000	         -4.61802193	          0.00000000	        -37.41594985	        386.04042079	        -14.68494971	          0.57008920	          0.00000000	          0.26861466	          0.00000000	          3.16589000	          0.00000000	          0.00000000	          0.00000000	          0.00000000	          0.00000000	          0.00000000	          0.00000000	          0.00000000	          0.00000000	          0.00000000	          0.00000000	          0.00000000	          0.00000000	          0.00000000	          0.00000000	          0.00000000	          0.00000000	          0.00000000	          0.00000000	
7.774	         40.23163589	        426.15244285	        -19.88874800	          0.23068364	          0.00000000	          0.29928831	          0.00000000	         -4.61686490	          0.00000000	        -37.43510097	        386.46949884	        -14.81057406	          0.57006520	          0.00000000	          0.26878143	          0.00000000	          3.17087619	          0.00000000	          0.00000000	          0.00000000	          0.00000000	          0.00000000	          0.00000000	          0.00000000	          0.00000000	          0.00000000	          0.00000000	          0.00000000	          0.00000000	          0.00000000	          0.00000000	          0.00000000	          0.00000000	          0.00000000	          0.00000000	          0.00000000	
7.775	         40.26141191	        426.43034249	        -19.97235569	          0.23070115	          0.00000000	          0.29936813	          0.00000000	         -4.61553060	          0.00000000	        -37.45463514	        386.88472508	        -14.93377490	          0.57004192	          0.00000000	          0.26894312	          0.00000000	          3.17575940	          0.00000000	          0.00000000	          0.00000000	          0.00000000	          0.00000000	          0.00000000	          0.00000000	          0.00000000	          0.00000000	          0.00000000	          0.00000000	          0.00000000	          0.00000000	          0.00000000	          0.00000000	          0.00000000	          0.00000000	          0.00000000	          0.00000000	
